<svg width="12" height="12" viewBox="0 0 12 12" fill="none" xmlns="http://www.w3.org/2000/svg">
<path d="M2.92308 0C2.14787 5.4454e-05 1.40442 0.308045 0.856283 0.856222C0.308145 1.4044 0.000206581 2.14786 0.000206581 2.92308C0.000206581 3.69829 0.308145 4.44175 0.856283 4.98993C1.40442 5.53811 2.14787 5.8461 2.92308 5.84615H5.38462C5.50702 5.84615 5.62442 5.79753 5.71097 5.71097C5.79753 5.62442 5.84615 5.50702 5.84615 5.38462V2.92308C5.84615 2.14783 5.53819 1.40433 4.99001 0.856149C4.44182 0.307966 3.69833 0 2.92308 0ZM2.99477 0.924308C3.51247 0.942877 4.00276 1.16159 4.36243 1.53441C4.72211 1.90722 4.92309 2.40505 4.92308 2.92308V4.92308H2.92308C2.66042 4.9231 2.40033 4.87138 2.15766 4.77088C1.91499 4.67038 1.69449 4.52307 1.50875 4.33735C1.32302 4.15163 1.17569 3.93115 1.07517 3.68848C0.974645 3.44582 0.922908 3.18573 0.922908 2.92308C0.922908 2.66042 0.974645 2.40033 1.07517 2.15767C1.17569 1.91501 1.32302 1.69452 1.50875 1.5088C1.69449 1.32308 1.91499 1.17577 2.15766 1.07527C2.40033 0.97477 2.66042 0.923055 2.92308 0.923077L2.99477 0.924308ZM5.38462 6.15385H2.92308C2.34495 6.15385 1.7798 6.32528 1.2991 6.64647C0.818406 6.96767 0.443748 7.42419 0.222507 7.95831C0.00126653 8.49243 -0.0566201 9.08016 0.0561674 9.64719C0.168955 10.2142 0.447351 10.735 0.85615 11.1438C1.26495 11.5526 1.78579 11.831 2.35281 11.9438C2.91983 12.0566 3.50757 11.9987 4.04169 11.7775C4.57581 11.5563 5.03234 11.1816 5.35353 10.7009C5.67472 10.2202 5.84615 9.65505 5.84615 9.07692V6.61538C5.84615 6.49298 5.79753 6.37558 5.71097 6.28903C5.62442 6.20247 5.50702 6.15385 5.38462 6.15385ZM2.92308 7.07692H4.92308V9.07692C4.92308 9.47248 4.80578 9.85916 4.58602 10.1881C4.36625 10.517 4.0539 10.7733 3.68844 10.9247C3.32299 11.0761 2.92086 11.1157 2.5329 11.0385C2.14494 10.9613 1.78857 10.7708 1.50886 10.4911C1.22916 10.2114 1.03868 9.85507 0.961507 9.4671C0.884337 9.07914 0.923944 8.67701 1.07532 8.31156C1.22669 7.9461 1.48304 7.63375 1.81194 7.41398C2.14084 7.19422 2.52752 7.07692 2.92308 7.07692ZM9.07692 0C8.30167 0 7.55818 0.307966 7.01 0.856149C6.46181 1.40433 6.15385 2.14783 6.15385 2.92308V5.38462C6.15385 5.50702 6.20247 5.62442 6.28903 5.71097C6.37558 5.79753 6.49298 5.84615 6.61538 5.84615H9.07692C9.85214 5.8461 10.5956 5.53811 11.1437 4.98993C11.6919 4.44175 11.9998 3.69829 11.9998 2.92308C11.9998 2.14786 11.6919 1.4044 11.1437 0.856222C10.5956 0.308045 9.85214 5.4454e-05 9.07692 0ZM9.07692 0.923077C9.60736 0.923077 10.1161 1.13379 10.4911 1.50886C10.8662 1.88394 11.0769 2.39264 11.0769 2.92308L11.0757 2.99477C11.0571 3.51247 10.8384 4.00276 10.4656 4.36243C10.0928 4.72211 9.59495 4.92309 9.07692 4.92308H7.07692V2.92308C7.07692 2.39264 7.28764 1.88394 7.66271 1.50886C8.03778 1.13379 8.54649 0.923077 9.07692 0.923077ZM9.07692 6.15385H6.61538C6.49298 6.15385 6.37558 6.20247 6.28903 6.28903C6.20247 6.37558 6.15385 6.49298 6.15385 6.61538V9.07692C6.15385 9.65505 6.32528 10.2202 6.64647 10.7009C6.96767 11.1816 7.42419 11.5563 7.95831 11.7775C8.49243 11.9987 9.08017 12.0566 9.64719 11.9438C10.2142 11.831 10.7351 11.5526 11.1438 11.1438C11.5526 10.735 11.831 10.2142 11.9438 9.64719C12.0566 9.08016 11.9987 8.49243 11.7775 7.95831C11.5563 7.42419 11.1816 6.96767 10.7009 6.64647C10.2202 6.32528 9.65505 6.15385 9.07692 6.15385ZM7.07692 9.07692V7.07692H9.07692C9.47249 7.07692 9.85916 7.19422 10.1881 7.41398C10.517 7.63375 10.7733 7.9461 10.9247 8.31156C11.0761 8.67701 11.1157 9.07914 11.0385 9.4671C10.9613 9.85507 10.7708 10.2114 10.4911 10.4911C10.2114 10.7708 9.85507 10.9613 9.4671 11.0385C9.07914 11.1157 8.67701 11.0761 8.31156 10.9247C7.9461 10.7733 7.63375 10.517 7.41398 10.1881C7.19422 9.85916 7.07692 9.47248 7.07692 9.07692Z" fill="white" fill-opacity="0.65"/>
</svg>
